
<svg width="28" height="28" viewBox="0 0 28 28" fill="none" xmlns="http://www.w3.org/2000/svg">
<path d="M12.3699 5.50808C12.4895 5.6278 12.5567 5.79009 12.5567 5.95929C12.5567 6.1285 12.4895 6.29078 12.3699 6.41051L5.79866 12.9829L22.9862 12.9829C23.1555 12.9829 23.3179 13.0501 23.4377 13.1699C23.5574 13.2896 23.6247 13.452 23.6247 13.6214C23.6247 13.7907 23.5574 13.9531 23.4377 14.0729C23.3179 14.1926 23.1555 14.2599 22.9862 14.2599L5.79866 14.2599L12.3699 20.8322C12.4827 20.9533 12.5441 21.1133 12.5412 21.2788C12.5383 21.4442 12.4713 21.602 12.3543 21.719C12.2373 21.836 12.0795 21.903 11.9141 21.9059C11.7487 21.9088 11.5886 21.8474 11.4675 21.7346L3.80546 14.0726C3.68589 13.9529 3.61873 13.7906 3.61873 13.6214C3.61873 13.4522 3.68589 13.2899 3.80546 13.1701L11.4675 5.50808C11.5872 5.38851 11.7495 5.32135 11.9187 5.32135C12.0879 5.32135 12.2502 5.38851 12.3699 5.50808Z" fill="white"/>
</svg>
