<svg width="19" height="19" viewBox="0 0 19 19" fill="none" xmlns="http://www.w3.org/2000/svg">
<path d="M4.1302 18.9092H0.290419V6.56408H4.1302V18.9092ZM2.18966 4.91257C0.992314 4.91257 0.00140381 3.88037 0.00140381 2.64173C0.00140381 1.44438 0.992314 0.453469 2.18966 0.453469C3.4283 0.453469 4.41921 1.44438 4.41921 2.64173C4.41921 3.88037 3.4283 4.91257 2.18966 4.91257ZM18.4571 18.9092H14.6586V12.9224C14.6586 11.4773 14.6173 9.66068 12.6355 9.66068C10.6537 9.66068 10.3647 11.1883 10.3647 12.7986V18.9092H6.5249V6.56408H10.1995V8.25689H10.2408C10.7776 7.30727 12.0162 6.27507 13.8742 6.27507C17.7552 6.27507 18.4984 8.83492 18.4984 12.138V18.9092H18.4571Z" fill="white"/>
</svg>
