<svg width="22" height="18" viewBox="0 0 22 18" fill="none" xmlns="http://www.w3.org/2000/svg">
<path d="M19.499 4.68795C19.499 4.89439 19.499 5.05954 19.499 5.26598C19.499 11.005 15.1638 17.5698 7.19524 17.5698C4.71796 17.5698 2.44713 16.8679 0.547882 15.6293C0.878186 15.6705 1.20849 15.7118 1.58008 15.7118C3.60319 15.7118 5.46115 15.0099 6.94751 13.8539C5.04827 13.8126 3.43804 12.5739 2.90129 10.8399C3.19031 10.8811 3.43804 10.9224 3.72705 10.9224C4.09865 10.9224 4.51152 10.8399 4.84183 10.7573C2.86001 10.3444 1.37364 8.6103 1.37364 6.50462V6.46333C1.95167 6.79363 2.65357 6.95879 3.35546 7.00007C2.15811 6.2156 1.41493 4.89439 1.41493 3.40802C1.41493 2.58226 1.62137 1.83908 1.99296 1.21976C4.13993 3.8209 7.36039 5.555 10.9524 5.76143C10.8699 5.43113 10.8286 5.10083 10.8286 4.77052C10.8286 2.37582 12.7691 0.43529 15.1638 0.43529C16.4025 0.43529 17.5172 0.930745 18.343 1.79779C19.2926 1.59135 20.2422 1.21976 21.068 0.724306C20.7377 1.7565 20.0771 2.58226 19.1687 3.11901C20.0358 3.03643 20.9028 2.7887 21.646 2.4584C21.068 3.32545 20.3248 4.06863 19.499 4.68795Z" fill="white"/>
</svg>
