<svg width="28" height="28" viewBox="0 0 28 28" fill="none" xmlns="http://www.w3.org/2000/svg">
<path d="M14.8745 21.7389C14.755 21.6192 14.6878 21.4569 14.6879 21.2877C14.6879 21.1185 14.7551 20.9562 14.8748 20.8365L21.4479 14.266L4.26036 14.2612C4.09102 14.2612 3.92863 14.1938 3.80892 14.0741C3.68921 13.9543 3.62199 13.7919 3.62203 13.6225C3.62208 13.4532 3.6894 13.2908 3.80917 13.1711C3.92895 13.0514 4.09137 12.9842 4.26072 12.9842L21.4482 12.989L14.8788 6.4148C14.766 6.29373 14.7047 6.13362 14.7076 5.96821C14.7106 5.80279 14.7776 5.64498 14.8947 5.52803C15.0117 5.41108 15.1695 5.34411 15.3349 5.34124C15.5004 5.33837 15.6604 5.39981 15.7814 5.51263L23.4414 13.1768C23.5609 13.2966 23.628 13.4589 23.628 13.6281C23.6279 13.7973 23.5607 13.9596 23.4411 14.0792L15.7769 21.7392C15.6572 21.8587 15.4949 21.9258 15.3257 21.9258C15.1565 21.9257 14.9942 21.8585 14.8745 21.7389Z" fill="white"/>
</svg>
