<svg width="156" height="156" viewBox="0 0 156 156" fill="none" xmlns="http://www.w3.org/2000/svg">
<path d="M136.5 52H123.5C120.052 52 116.746 53.3696 114.308 55.8076C111.87 58.2456 110.5 61.5522 110.5 65V91C110.5 94.4478 111.87 97.7544 114.308 100.192C116.746 102.63 120.052 104 123.5 104H136.5V78H130M65 104V52H78C81.4478 52 84.7544 53.3696 87.1924 55.8076C89.6304 58.2456 91 61.5522 91 65C91 68.4478 89.6304 71.7544 87.1924 74.1924C84.7544 76.6304 81.4478 78 78 78H65M19.5 52H45.5V91C45.5 94.4478 44.1304 97.7544 41.6924 100.192C39.2544 102.63 35.9478 104 32.5 104H22.75C21.888 104 21.0614 103.658 20.4519 103.048C19.8424 102.439 19.5 101.612 19.5 100.75V97.5" stroke="black" stroke-width="13" stroke-linecap="round" stroke-linejoin="round"/>
</svg>
