<svg width="220" height="47" viewBox="0 0 220 47" fill="none" xmlns="http://www.w3.org/2000/svg">
<path d="M127.689 44.2132C127.689 44.2472 128.098 44.0257 128.899 43.5316C129.717 43.0375 130.671 42.39 131.778 41.5892C132.886 40.7713 134.027 39.9023 135.203 38.9311C136.362 37.977 137.333 37.0569 138.083 36.1879C138.832 35.3189 139.241 34.5862 139.292 33.9558C139.343 33.3424 138.832 32.9335 137.742 32.746C136.379 32.5586 135.254 32.5757 134.317 32.7972C133.397 33.0187 132.562 33.2913 131.795 33.5809C131.046 33.8876 130.33 34.1603 129.682 34.4329C129.018 34.7055 128.302 34.7907 127.501 34.7225C125.849 34.7225 124.707 34.2114 124.077 33.172C123.446 32.1326 123.14 30.7355 123.14 28.9634C123.14 27.1914 123.531 25.5045 124.332 23.9029C125.116 22.3012 126.138 20.9211 127.382 19.7454C128.626 18.5868 130.057 17.6496 131.676 16.9511C133.295 16.2525 134.947 15.9117 136.651 15.9117C137.333 15.9117 137.912 15.9628 138.406 16.0821C138.9 16.2013 139.139 16.6273 139.139 17.377C139.139 17.9052 138.917 18.3994 138.457 18.8764C137.997 19.3535 137.503 19.575 136.924 19.575C136.89 19.575 136.788 19.541 136.634 19.4898C136.481 19.4387 136.328 19.3535 136.174 19.2343C136.021 19.115 135.868 19.0298 135.714 18.9787C135.561 18.9276 135.476 18.8935 135.425 18.8935C134.215 18.5527 133.056 18.7231 131.932 19.4046C130.807 20.0862 129.802 20.9893 128.916 22.1479C128.03 23.2895 127.331 24.5333 126.803 25.8794C126.275 27.2255 126.019 28.4182 126.019 29.4746C126.019 29.8835 126.104 30.2243 126.275 30.4628C126.445 30.7014 126.667 30.8888 126.956 30.991C127.246 31.1103 127.553 31.1785 127.91 31.1955C128.268 31.2125 128.626 31.2296 129.018 31.2296C129.768 31.2296 130.534 31.1103 131.301 30.8888C132.068 30.6673 132.835 30.3947 133.567 30.105C134.3 29.8154 135.05 29.5427 135.833 29.3212C136.617 29.0997 137.401 28.9805 138.236 28.9805C138.611 28.9805 139.02 29.0827 139.48 29.2872C139.94 29.4916 140.349 29.7983 140.724 30.1902C141.098 30.5821 141.422 31.0422 141.678 31.5533C141.933 32.0645 142.087 32.6097 142.138 33.2231C142.359 33.7513 142.291 34.4499 141.933 35.3189C141.576 36.1879 141.047 37.108 140.315 38.0792C139.599 39.0674 138.73 40.0557 137.725 41.0439C136.702 42.0492 135.697 42.9523 134.675 43.7531C133.652 44.571 132.664 45.2185 131.676 45.7296C130.688 46.2408 129.87 46.4793 129.188 46.4282C128.439 46.4282 127.996 46.2067 127.859 45.7467C127.757 45.2866 127.689 44.7755 127.689 44.2132Z" fill="#FF8100" stroke="#FF8100" stroke-width="0.681553" stroke-miterlimit="10"/>
<path d="M145.92 20.9381C145.546 21.1256 145.188 21.33 144.881 21.5345C144.557 21.739 144.251 21.9264 143.944 22.0968C143.637 22.2672 143.348 22.3864 143.041 22.4546C142.734 22.5227 142.41 22.5227 142.087 22.4546C141.865 22.4546 141.678 22.3183 141.524 22.0286C141.371 21.739 141.252 21.4323 141.15 21.0744C141.064 20.7166 140.996 20.3588 140.945 20.001C140.911 19.6432 140.911 19.3706 140.945 19.1831L146.38 16.0821L146.721 1.61611C146.789 1.12198 147.096 0.934554 147.624 1.01975C148.153 1.12198 148.698 1.24125 149.26 1.3946C149.328 1.3946 149.464 1.42868 149.635 1.4798C149.805 1.53091 149.925 1.58203 150.01 1.61611C149.942 2.63844 149.856 3.72892 149.754 4.92164C149.652 6.11436 149.584 7.29003 149.499 8.48275C149.413 9.67547 149.379 10.8341 149.362 11.9587C149.345 13.0832 149.396 14.1056 149.499 15.0086L157.967 12.6402C158.12 12.6061 158.239 12.7084 158.342 12.9469C158.427 13.1855 158.529 13.4922 158.631 13.8159C158.717 14.1567 158.802 14.6678 158.887 15.3324L149.26 19.4217C149.26 19.7625 149.294 20.5633 149.345 21.8412C149.396 23.1191 149.464 24.6356 149.55 26.3906C149.618 28.1456 149.703 30.0198 149.771 32.0304C149.839 34.041 149.925 35.9153 149.993 37.6532C150.061 39.3912 150.129 40.9076 150.163 42.2026C150.197 43.4975 150.214 44.3154 150.214 44.6562C150.129 45.7807 149.805 46.3601 149.226 46.3601C148.647 46.3601 148.016 46.0704 147.335 45.5081L145.92 20.9381Z" fill="#FF8100" stroke="#FF8100" stroke-width="0.681553" stroke-miterlimit="10"/>
<path d="M173.557 43.5828C173.37 42.6115 173.2 41.4359 173.08 40.0557C172.944 38.6756 172.808 37.2954 172.654 35.8812C172.501 34.467 172.331 33.138 172.109 31.8941C171.905 30.6503 171.598 29.628 171.172 28.8442C169.247 32.7631 167.56 35.8471 166.094 38.0792C164.629 40.3113 163.334 41.913 162.227 42.8842C161.119 43.8554 160.182 44.2984 159.432 44.2643C158.683 44.2302 158.052 43.8895 157.575 43.242C157.081 42.5945 156.74 41.7766 156.536 40.7884C156.331 39.7831 156.195 38.863 156.11 37.994C156.11 37.1591 156.297 36.0005 156.672 34.484C157.047 32.9676 157.558 31.3318 158.205 29.5428C158.853 27.7537 159.603 25.9305 160.489 24.0903C161.375 22.2501 162.329 20.5633 163.334 19.0639C164.339 17.5645 165.413 16.3206 166.503 15.3324C167.594 14.3441 168.684 13.867 169.775 13.867C171.394 13.6115 172.586 13.9522 173.37 14.9064C174.137 15.8606 174.29 17.4793 173.796 19.7284C173.796 22.2161 173.898 24.3459 174.103 26.118C174.307 27.89 174.529 29.5768 174.784 31.1955C175.04 32.8142 175.261 34.5011 175.466 36.2731C175.67 38.0451 175.772 40.175 175.772 42.6627C175.772 43.1057 175.721 43.4976 175.636 43.8213C175.534 44.145 175.074 44.2984 174.256 44.2984C174.137 44.2984 174 44.2132 173.83 44.0087C173.643 43.8554 173.557 43.702 173.557 43.5828ZM170.507 18.3483C170.099 17.7519 169.519 17.6837 168.821 18.1779C168.105 18.672 167.355 19.4728 166.554 20.5974C165.771 21.7219 164.953 23.0851 164.118 24.6697C163.283 26.2543 162.516 27.8559 161.801 29.4746C161.085 31.0933 160.472 32.6268 159.943 34.0751C159.415 35.5234 159.057 36.7161 158.87 37.6703C158.87 39.0334 159.074 39.7831 159.483 39.9535C159.892 40.1239 160.403 39.9024 161.017 39.306C161.613 38.7097 162.312 37.8407 163.079 36.7161C163.845 35.5916 164.612 34.3818 165.345 33.1039C166.077 31.826 166.776 30.5821 167.441 29.3724C168.105 28.1626 168.616 27.1914 168.991 26.4417C169.332 25.6579 169.587 24.9252 169.775 24.2437C169.962 23.5621 170.116 22.9147 170.252 22.3013C170.388 21.6879 170.456 21.0574 170.473 20.41C170.49 19.7284 170.507 19.0469 170.507 18.3483Z" fill="#FF8100" stroke="#FF8100" stroke-width="0.681553" stroke-miterlimit="10"/>
<path d="M179.657 17.8371V17.377C179.657 17.0022 179.794 16.7295 180.083 16.5932C180.373 16.4569 180.697 16.3717 181.072 16.3717C181.378 16.3717 181.651 16.4058 181.923 16.4569C182.179 16.508 182.401 16.7295 182.554 17.1044C182.673 17.6667 182.775 18.4505 182.895 19.4557C183.014 20.461 183.133 21.5515 183.287 22.7613C183.44 23.971 183.593 25.2319 183.764 26.578C183.934 27.924 184.104 29.1679 184.275 30.3606C184.445 31.5533 184.616 32.6097 184.82 33.5469C185.007 34.484 185.212 35.1996 185.451 35.6937C185.331 32.0815 185.451 28.9464 185.791 26.2883C186.132 23.6303 186.78 21.4663 187.734 19.7965C188.688 18.1267 190.017 16.951 191.687 16.2865C193.357 15.622 195.469 15.4857 197.991 15.8605C199.15 15.8605 199.746 16.491 199.746 17.7178C199.746 18.2119 199.422 18.5356 198.792 18.706C198.144 18.8764 197.446 18.9957 196.645 19.0468C195.861 19.0979 195.077 19.1661 194.328 19.2513C193.578 19.3194 193.033 19.5239 192.692 19.8136C191.329 20.5633 190.392 21.7389 189.847 23.3236C189.301 24.9082 188.909 26.7654 188.688 28.9123C188.466 31.0592 188.296 33.4105 188.211 35.9493C188.109 38.4881 187.87 41.095 187.444 43.7701C187.444 44.145 187.291 44.4347 186.984 44.6221C186.677 44.8095 186.319 44.9117 185.876 44.9117C185.451 44.9117 185.025 44.8266 184.633 44.6221C184.241 44.4347 183.917 44.145 183.696 43.7701L179.657 17.8371Z" fill="#FF8100" stroke="#FF8100" stroke-width="0.681553" stroke-miterlimit="10"/>
<path d="M206.05 20.9381C205.676 21.1256 205.318 21.33 205.011 21.5345C204.687 21.739 204.381 21.9264 204.074 22.0968C203.767 22.2672 203.478 22.3864 203.171 22.4546C202.864 22.5227 202.54 22.5227 202.217 22.4546C201.995 22.4546 201.808 22.3183 201.654 22.0286C201.501 21.739 201.382 21.4323 201.28 21.0744C201.177 20.7166 201.126 20.3588 201.075 20.001C201.041 19.6432 201.041 19.3706 201.075 19.1831L206.493 16.0821L206.834 1.61611C206.902 1.12198 207.209 0.934554 207.737 1.01975C208.265 1.12198 208.811 1.24125 209.373 1.3946C209.441 1.3946 209.577 1.42868 209.748 1.4798C209.918 1.53091 210.038 1.58203 210.123 1.61611C210.055 2.63844 209.969 3.72892 209.867 4.92164C209.765 6.11436 209.68 7.29003 209.612 8.48275C209.543 9.67547 209.492 10.8341 209.475 11.9587C209.458 13.0832 209.509 14.1056 209.612 15.0086L218.08 12.6402C218.233 12.6061 218.352 12.7084 218.455 12.9469C218.557 13.1855 218.642 13.4922 218.744 13.8159C218.847 14.1567 218.932 14.6678 219 15.3324L209.407 19.4046C209.407 19.7454 209.441 20.5462 209.492 21.8412C209.543 23.1191 209.612 24.6356 209.697 26.3906C209.765 28.1456 209.85 30.0198 209.918 32.0304C209.986 34.041 210.072 35.9153 210.14 37.6532C210.208 39.3912 210.276 40.9076 210.31 42.2026C210.344 43.4975 210.361 44.3154 210.361 44.6562C210.293 45.7807 209.952 46.3601 209.373 46.3601C208.794 46.3601 208.163 46.0704 207.482 45.5081L206.05 20.9381Z" fill="#FF8100" stroke="#FF8100" stroke-width="0.681553" stroke-miterlimit="10"/>
<path d="M8.16159 46.5475V14.1056C7.01999 14.9576 5.6228 15.4858 4.10635 15.4858C2.60693 15.4858 1.24383 14.9916 0.119263 14.1738V46.5646" fill="#4141AF"/>
<path d="M4.10636 12.8107C6.37252 12.8107 8.21271 10.9705 8.21271 8.70432C8.21271 6.43815 6.37252 4.59796 4.10636 4.59796C1.84019 4.59796 0 6.42112 0 8.70432C0 10.9705 1.84019 12.8107 4.10636 12.8107Z" fill="#FF8100"/>
<path d="M35.2022 46.5475C39.1382 46.5134 40.6546 46.4794 43.2445 46.4112V26.4417C43.2445 24.7889 43.023 23.1873 42.58 21.6197C42.137 20.0521 41.4214 18.672 40.4672 17.4622C39.513 16.2525 38.2692 15.2813 36.7868 14.5486C35.2874 13.8159 33.4813 13.4411 31.3855 13.4411C28.966 13.4411 26.8873 14.0545 25.1152 15.2813C23.3432 16.5081 22.1164 17.9223 21.4008 19.541H21.2644V14.3612H13.614V46.5475H21.6563V28.8612C21.6563 27.7878 21.8097 26.7314 22.1334 25.6749C22.4401 24.6185 22.9002 23.6984 23.5136 22.8976C24.1099 22.0968 24.8937 21.4323 25.8309 20.9211C26.768 20.41 27.8925 20.1544 29.1875 20.1544C30.4824 20.1544 31.5218 20.427 32.3056 20.9552C33.0894 21.4834 33.7028 22.1649 34.1458 22.9999C34.5888 23.8348 34.8785 24.7549 35.0148 25.7772C35.1511 26.7995 35.2192 27.7878 35.2192 28.7249L35.2022 46.5475Z" fill="#4141AF"/>
<path d="M70.217 46.5475C74.1529 46.5134 75.6694 46.4794 78.2593 46.4112V26.4417C78.2593 24.7889 78.0378 23.1873 77.5948 21.6197C77.1518 20.0521 76.4361 18.672 75.482 17.4622C74.5278 16.2525 73.284 15.2813 71.8016 14.5486C70.3192 13.8159 68.4961 13.4411 66.4003 13.4411C63.9808 13.4411 61.902 14.0545 60.13 15.2813C58.358 16.5081 57.1312 17.9223 56.4155 19.541H56.2792V14.3612H48.6288V46.5475H56.6711V28.8612C56.6711 27.7878 56.8245 26.7314 57.1482 25.6749C57.4549 24.6185 57.9149 23.6984 58.5283 22.8976C59.1247 22.0968 59.9085 21.4323 60.8456 20.9211C61.7828 20.41 62.9073 20.1544 64.2023 20.1544C65.4972 20.1544 66.5366 20.427 67.3204 20.9552C68.1042 21.4834 68.7176 22.1649 69.1606 22.9999C69.6036 23.8348 69.8932 24.7549 70.0296 25.7772C70.1659 26.7995 70.234 27.7878 70.234 28.7249V46.5475H70.217Z" fill="#4141AF"/>
<path d="M100.699 25.2831C98.4333 25.2831 96.5931 27.1233 96.5931 29.3894C96.5931 31.6556 98.4333 33.4958 100.699 33.4958C102.966 33.4958 104.806 31.6556 104.806 29.3894C104.806 27.1233 102.966 25.2831 100.699 25.2831Z" fill="#FF8100"/>
<path d="M100.699 12.3506C91.294 12.3506 83.6606 19.984 83.6606 29.3894C83.6606 38.7949 91.294 46.4283 100.699 46.4283C110.105 46.4283 117.738 38.7949 117.738 29.3894C117.738 19.984 110.105 12.3506 100.699 12.3506ZM100.699 39.3401C95.1959 39.3401 90.7488 34.8759 90.7488 29.3894C90.7488 23.9029 95.2129 19.4388 100.699 19.4388C106.186 19.4388 110.65 23.9029 110.65 29.3894C110.65 34.8759 106.186 39.3401 100.699 39.3401Z" fill="#4141AF"/>
</svg>
