<svg width="478" height="160" viewBox="0 0 478 160" fill="none" xmlns="http://www.w3.org/2000/svg">
<path d="M65.0081 85.4534C63.1129 85.4534 61.3951 84.6832 60.153 83.4411C58.9109 82.199 58.1407 80.4812 58.1407 78.586C58.1407 76.6908 58.9109 74.973 60.153 73.7309C61.3951 72.4888 63.1129 71.7186 65.0081 71.7186C66.9034 71.7186 68.6211 72.4888 69.8632 73.7309C71.1053 74.973 71.8755 76.6908 71.8755 78.586C71.8755 80.4812 71.1053 82.199 69.8632 83.4411C68.6211 84.6832 66.9034 85.4534 65.0081 85.4534ZM38.1652 65.0362C38.9618 64.5756 39.4979 63.8356 39.7169 63.0126C39.9359 62.1896 39.8453 61.2797 39.3847 60.4831C38.9241 59.6865 38.1841 59.1504 37.3611 58.9314C36.538 58.7124 35.6282 58.803 34.8316 59.2636C34.035 59.7242 33.4989 60.4642 33.2799 61.2872C33.0609 62.1103 33.1515 63.0201 33.6121 63.8167C34.0727 64.6133 34.8127 65.1495 35.6357 65.3684C36.4625 65.5874 37.3686 65.493 38.1652 65.0362ZM90.6127 63.8054C91.0733 64.602 91.8133 65.1381 92.6363 65.3571C93.4593 65.5761 94.3692 65.4855 95.1658 65.0249C95.9624 64.5643 96.4985 63.8243 96.7175 63.0013C96.9364 62.1782 96.8458 61.2684 96.3852 60.4718C95.9246 59.6752 95.1847 59.1391 94.3616 58.9201C93.5386 58.7011 92.6287 58.7917 91.8321 59.2523C91.0355 59.7129 90.4994 60.4529 90.2805 61.2759C90.0577 62.1027 90.1521 63.0088 90.6127 63.8054ZM63.3432 108.596C62.5466 109.057 62.0105 109.797 61.7915 110.62C61.5725 111.443 61.6631 112.353 62.1237 113.15C62.5843 113.946 63.3243 114.482 64.1473 114.701C64.9704 114.92 65.8802 114.83 66.6768 114.369C67.4734 113.908 68.0095 113.168 68.2285 112.345C68.4475 111.522 68.3569 110.612 67.8963 109.816C67.4357 109.019 66.6957 108.483 65.8727 108.264C65.0459 108.041 64.1398 108.136 63.3432 108.596ZM123.402 44.8719V72.7379V100.604C123.402 104.213 122.432 107.694 120.68 110.73C118.928 113.765 116.395 116.347 113.272 118.148L89.1403 132.079L65.0081 146.01L40.8759 132.079L16.7438 118.148C13.6215 116.343 11.0883 113.761 9.33648 110.73C7.58471 107.698 6.61444 104.213 6.61444 100.604V72.7379V44.8719L30.7466 30.9408L54.8788 17.0097C58.0048 15.205 61.5046 14.3027 65.0081 14.3027C68.5117 14.3027 72.0152 15.205 75.1374 17.0097L99.2696 30.9408L123.402 44.8719ZM87.649 26.9842C90.8543 30.2122 94.1653 34.1838 96.9666 38.8842C99.768 43.5845 102.063 49.0097 103.234 55.1409L111.528 50.35L119.823 45.559L103.736 36.2716L87.649 26.9842ZM31.6414 33.1758C39.698 31.0465 50.0954 29.8573 60.8401 32.8323C71.5886 35.8035 82.6844 42.9352 92.1455 57.4401C91.9567 57.4968 91.768 57.5572 91.583 57.6327C91.398 57.7082 91.2167 57.7912 91.0431 57.8932C90.6769 58.1046 90.3522 58.3576 90.069 58.6445C89.7859 58.9314 89.5405 59.2485 89.3366 59.5845C88.272 58.988 87.0412 58.5388 85.667 58.2405C84.2927 57.9423 82.7788 57.7912 81.1516 57.7912C80.8458 57.7912 80.5287 57.8026 80.2115 57.8177C79.8944 57.8328 79.5697 57.8554 79.2488 57.8781C79.8755 59.4826 80.4305 61.2004 80.9024 63.0164C81.3744 64.8323 81.767 66.7464 82.069 68.7398C83.6471 70.0008 85.112 71.2995 86.4485 72.6171C87.7849 73.9385 89.0006 75.2788 90.0766 76.6266C91.2054 74.9352 92.0851 73.2665 92.6854 71.6544C93.2857 70.0423 93.6103 68.4944 93.633 67.0447C94.0294 67.0334 94.4258 66.9767 94.8185 66.871C95.2073 66.7653 95.5924 66.6067 95.9586 66.3953C96.1021 66.3123 96.238 66.2254 96.3701 66.131C96.5023 66.0367 96.6269 65.9347 96.7477 65.829C97.5443 67.8035 98.1634 69.8649 98.5863 71.998C99.0091 74.1311 99.2281 76.3359 99.2281 78.5898C99.2281 78.7559 99.2281 78.9258 99.2243 79.0919C99.2205 79.258 99.2168 79.4241 99.213 79.594C100.066 76.8342 100.704 74.1009 101.116 71.4015C101.527 68.7021 101.716 66.0329 101.675 63.4014C101.614 59.3958 101.033 55.4581 99.9379 51.6223C98.843 47.7865 97.2347 44.0489 95.1243 40.4359C91.7831 34.7237 87.6528 30.114 83.8661 26.6218C80.0794 23.1296 76.6363 20.7548 74.6731 19.5127C74.6127 19.475 73.9482 19.0748 73.9482 19.0748C71.1922 17.4854 68.1001 16.6888 65.0119 16.6888C61.9199 16.6888 58.8316 17.4854 56.0756 19.0748L43.8623 26.1272L31.6414 33.1758ZM37.3007 94.2311C37.3384 94.2991 37.3762 94.3671 37.4177 94.435C37.4592 94.503 37.497 94.5709 37.5347 94.6351C38.5012 96.2245 40.0076 97.41 41.9368 98.1991C43.866 98.9881 46.2143 99.377 48.8646 99.377C49.1704 99.377 49.4876 99.3656 49.8047 99.3505C50.1218 99.3354 50.4465 99.3128 50.7674 99.2901C50.1407 97.6856 49.5857 95.9678 49.1138 94.1519C48.6419 92.3359 48.2492 90.4218 47.9472 88.4284C46.3691 87.1674 44.9043 85.8687 43.5678 84.5511C42.2313 83.2297 41.0156 81.8895 39.9397 80.5416C38.2294 83.1013 37.093 85.612 36.6211 87.9414C36.1529 90.2745 36.3455 92.4152 37.3007 94.2311ZM38.4748 78.586C37.4366 77.1023 36.572 75.6148 35.8849 74.1575C35.2016 72.6964 34.6994 71.258 34.3974 69.8649C34.001 71.2505 33.6952 72.6775 33.4875 74.1311C33.2799 75.5884 33.1742 77.0758 33.1742 78.586C33.1742 80.0999 33.2837 81.5836 33.4913 83.0409C33.699 84.4982 34.0048 85.9215 34.4012 87.3071C34.7032 85.914 35.2053 84.4756 35.8887 83.0145C36.5682 81.5534 37.4366 80.0697 38.4748 78.586ZM47.2223 78.586C47.2223 77.4798 47.2488 76.385 47.3016 75.309C47.3545 74.233 47.43 73.1721 47.5319 72.1301C46.3276 73.1797 45.2063 74.2519 44.1756 75.3316C43.1449 76.4114 42.2049 77.4987 41.3592 78.586C42.2011 79.6733 43.1449 80.7606 44.1756 81.8404C45.2063 82.9201 46.3276 83.9886 47.5319 85.0419C47.4338 83.9999 47.3545 82.939 47.3016 81.863C47.2488 80.7833 47.2223 79.6922 47.2223 78.586ZM42.2011 100.763C44.2285 102.85 46.5428 104.659 49.0723 106.131C51.6018 107.604 54.354 108.732 57.2648 109.465C56.2077 108.506 55.2148 107.354 54.2898 106.037C53.3649 104.715 52.5154 103.224 51.7452 101.586C51.2507 101.631 50.7636 101.665 50.2842 101.687C49.8047 101.71 49.329 101.721 48.8609 101.721C47.6188 101.721 46.4371 101.638 45.3233 101.48C44.2171 101.31 43.1714 101.072 42.2011 100.763ZM53.1723 99.0447C54.539 98.8597 55.951 98.5879 57.4007 98.2368C58.8505 97.8857 60.3418 97.4478 61.8557 96.9268C60.893 96.4888 59.9302 96.0282 58.9713 95.5374C58.0124 95.0504 57.0572 94.5332 56.1133 93.9857C55.1544 93.4308 54.2219 92.8607 53.3158 92.2793C52.4097 91.6941 51.53 91.0976 50.6768 90.4897C50.9826 92.0527 51.3488 93.5553 51.7641 94.9862C52.1832 96.4171 52.6551 97.7724 53.1723 99.0447ZM65.0081 95.7413C66.2842 95.2165 67.5716 94.6464 68.8628 94.0197C70.1539 93.393 71.4451 92.7097 72.7363 91.9659C74.0237 91.2222 75.2696 90.4444 76.4626 89.6441C77.6556 88.8437 78.7996 88.0169 79.8906 87.175C80.0756 85.8083 80.2191 84.4039 80.3173 82.973C80.4154 81.5383 80.4645 80.0773 80.4645 78.586C80.4645 77.0985 80.4154 75.6337 80.3173 74.199C80.2191 72.7644 80.0756 71.3637 79.8906 69.997C78.7996 69.1513 77.6556 68.3283 76.4626 67.5279C75.2696 66.7276 74.0275 65.9498 72.7363 65.2061C71.4451 64.4623 70.1539 63.779 68.8628 63.1523C67.5716 62.5256 66.288 61.9517 65.0081 61.4307C63.732 61.9555 62.4446 62.5256 61.1535 63.1523C59.8623 63.779 58.5711 64.4623 57.2799 65.2061C55.9925 65.9498 54.7467 66.7276 53.5536 67.5279C52.3606 68.3283 51.2167 69.1551 50.1256 69.997C49.9406 71.3637 49.7971 72.7681 49.699 74.199C49.6008 75.6337 49.5517 77.0947 49.5517 78.586C49.5517 80.0735 49.6008 81.5383 49.699 82.973C49.7971 84.4076 49.9406 85.8083 50.1256 87.175C51.2167 88.0206 52.3606 88.8437 53.5536 89.6441C54.7467 90.4444 55.9888 91.2222 57.2799 91.9659C58.5711 92.7097 59.8623 93.393 61.1535 94.0197C62.4446 94.6464 63.7283 95.2203 65.0081 95.7413ZM78.2672 55.5902C78.7618 55.5449 79.2488 55.5109 79.7283 55.4883C80.2078 55.4656 80.6835 55.4543 81.1516 55.4543C82.3937 55.4543 83.5754 55.5374 84.6854 55.6959C85.7953 55.8545 86.8411 56.0923 87.8114 56.4057C85.784 54.3179 83.4697 52.5095 80.9402 51.0371C78.4107 49.5647 75.6584 48.4359 72.7476 47.7035C73.8047 48.6624 74.7977 49.8139 75.7226 51.1315C76.6476 52.4604 77.497 53.9517 78.2672 55.5902ZM76.8401 58.1235C75.4734 58.3085 74.0615 58.5803 72.6117 58.9314C71.162 59.2863 69.6707 59.7205 68.1568 60.2415C69.1195 60.6794 70.0822 61.1438 71.0412 61.6308C72.0001 62.1178 72.9553 62.635 73.8991 63.1825C74.8581 63.7375 75.7906 64.3075 76.6967 64.8889C77.6028 65.4741 78.4824 66.0706 79.3357 66.6785C79.0298 65.1155 78.6636 63.6129 78.2483 62.182C77.8293 60.7511 77.3574 59.3958 76.8401 58.1235ZM65.0081 46.7521C62.8977 46.7521 60.8854 47.6242 59.0506 49.2061C57.2158 50.7879 55.5621 53.0758 54.169 55.9036C55.8981 56.1716 57.6801 56.5605 59.4923 57.0626C61.3045 57.5647 63.1506 58.1839 65.0043 58.9125C66.858 58.1877 68.7042 57.5685 70.5164 57.0626C72.3286 56.5605 74.1105 56.1678 75.8397 55.9036C74.4465 53.0758 72.7929 50.7879 70.9581 49.2061C69.1308 47.6242 67.1186 46.7521 65.0081 46.7521ZM57.2573 47.7148C54.3465 48.4472 51.5942 49.576 49.0609 51.0484C46.5277 52.517 44.2171 54.3255 42.186 56.4132C43.16 56.0999 44.2058 55.862 45.3196 55.6997C46.4333 55.5374 47.615 55.4543 48.8646 55.4543C49.3328 55.4543 49.8085 55.4656 50.2879 55.4883C50.7674 55.5109 51.2544 55.5449 51.749 55.5902C52.5154 53.9517 53.3649 52.4642 54.2898 51.1428C55.2148 49.8214 56.2002 48.6737 57.2573 47.7148ZM50.6768 66.6785C51.53 66.0706 52.4097 65.4741 53.3158 64.8889C54.2219 64.3038 55.1544 63.7375 56.1133 63.1825C57.061 62.635 58.0124 62.1216 58.9713 61.6308C59.9302 61.1438 60.893 60.6794 61.8557 60.2415C60.3418 59.7242 58.8505 59.2863 57.4007 58.9314C55.951 58.5765 54.5352 58.3085 53.1686 58.1235C52.6513 59.3958 52.1794 60.7511 51.7603 62.182C51.3488 63.6091 50.9864 65.1117 50.6768 66.6785ZM68.1568 96.9268C69.6707 97.444 71.1582 97.8819 72.6117 98.2368C74.0652 98.5917 75.4772 98.8597 76.8401 99.0447C77.3574 97.7724 77.8293 96.4171 78.2483 94.9862C78.6674 93.5553 79.0298 92.0527 79.3357 90.4897C78.4824 91.0976 77.6028 91.6941 76.6967 92.2793C75.7906 92.8645 74.8581 93.4308 73.8991 93.9857C72.9515 94.5332 72.0001 95.0466 71.0412 95.5374C70.0822 96.0282 69.1195 96.4888 68.1568 96.9268ZM72.759 109.453C75.6698 108.721 78.422 107.592 80.9553 106.124C83.4886 104.655 85.7991 102.847 87.8302 100.759C86.8562 101.072 85.8104 101.31 84.6967 101.472C83.5829 101.635 82.4013 101.718 81.1516 101.718C80.6835 101.718 80.2078 101.706 79.7283 101.684C79.2488 101.661 78.7618 101.627 78.2672 101.582C77.5008 103.22 76.6476 104.708 75.7264 106.029C74.8052 107.347 73.8123 108.498 72.759 109.453ZM92.5004 94.6087C92.5381 94.5445 92.5721 94.4803 92.6099 94.4161C92.6438 94.352 92.6816 94.2878 92.7156 94.2236C93.667 92.4076 93.8595 90.267 93.3876 87.9376C92.9157 85.612 91.7793 83.0976 90.069 80.5416C88.9931 81.8895 87.7812 83.2297 86.4409 84.5511C85.1044 85.8725 83.6396 87.1674 82.0615 88.4284C81.7594 90.4218 81.3668 92.3359 80.8949 94.1519C80.423 95.9678 79.868 97.6856 79.2413 99.2901C79.5622 99.3128 79.8869 99.3317 80.204 99.3505C80.5211 99.3656 80.8382 99.377 81.1441 99.377C83.7981 99.377 86.154 98.9843 88.0907 98.1915C90.0313 97.4024 91.5414 96.2094 92.5004 94.6087ZM82.7939 78.586C82.7939 79.6922 82.7675 80.787 82.7146 81.863C82.6618 82.939 82.5862 83.9999 82.4843 85.0419C83.6887 83.9923 84.8099 82.9201 85.8406 81.8404C86.8713 80.7606 87.8114 79.6733 88.657 78.586C87.8151 77.4987 86.8713 76.4114 85.8406 75.3316C84.8099 74.2519 83.6887 73.1834 82.4843 72.1301C82.5825 73.1721 82.6618 74.233 82.7146 75.309C82.7637 76.385 82.7939 77.4798 82.7939 78.586ZM95.6188 87.3071C96.0152 85.9215 96.321 84.4945 96.5287 83.0409C96.7363 81.5836 96.8421 80.0999 96.8421 78.586C96.8421 77.0721 96.7326 75.5884 96.5249 74.1311C96.3173 72.6738 96.0115 71.2505 95.6151 69.8649C95.313 71.258 94.8109 72.6964 94.1276 74.1575C93.4442 75.6186 92.5759 77.1023 91.5377 78.586C92.5759 80.0735 93.4442 81.5572 94.1276 83.0145C94.8147 84.4756 95.313 85.914 95.6188 87.3071ZM10.1897 45.559L18.8731 50.5727L27.5564 55.5864C31.7471 52.3472 36.7759 49.5874 42.8089 47.6166C48.842 45.6459 55.8793 44.4642 64.0907 44.3811C64.2417 44.3773 64.3927 44.3736 64.5475 44.3736C64.6985 44.3698 64.8533 44.3698 65.0043 44.3698C68.304 44.3698 71.4942 44.8379 74.5145 45.7138C77.5348 46.5897 80.3852 47.8696 82.9978 49.493C81.0308 47.3674 78.9808 45.4458 76.8439 43.7318C74.707 42.0215 72.4871 40.5189 70.1841 39.2353C66.7259 37.3061 63.0714 35.8526 59.2507 34.8823C55.43 33.912 51.4432 33.4212 47.313 33.4212C47.2639 33.4212 47.2148 33.4212 47.1657 33.4212C47.1166 33.4212 47.0676 33.4212 47.0185 33.4212C40.4002 33.459 34.3445 34.7313 29.4252 36.2641C24.5059 37.7969 20.7306 39.5902 18.673 40.6699C18.6088 40.7039 18.4314 40.7945 18.3974 40.8134L14.2898 43.1843L10.1897 45.559ZM8.9967 84.7776C10.1897 80.3869 11.9755 75.5317 14.6409 70.7559C17.3101 65.98 20.8627 61.2797 25.5895 57.2023L17.2912 52.4151L8.9967 47.6242V66.2028V84.7776ZM42.3634 130.188C36.4927 124.276 30.2671 115.868 27.4658 105.078C24.6645 94.2878 25.2874 81.1155 33.1138 65.6742C33.4083 65.9574 33.7329 66.2066 34.0878 66.4142C34.4427 66.6218 34.824 66.7804 35.228 66.8899C35.4205 66.9428 35.6131 66.9805 35.8056 67.0069C35.9982 67.0334 36.1907 67.0485 36.387 67.0522C36.4097 68.502 36.7344 70.0499 37.3346 71.6582C37.9349 73.2665 38.8108 74.9352 39.9397 76.6228C41.0156 75.275 42.2275 73.9347 43.5678 72.6134C44.9043 71.292 46.3691 69.997 47.9472 68.736C48.2492 66.7427 48.6419 64.8285 49.1138 63.0126C49.5857 61.1966 50.1407 59.4788 50.7674 57.8743C50.4465 57.8517 50.1218 57.8328 49.8047 57.8139C49.4876 57.7988 49.1704 57.7875 48.8646 57.7875C47.2374 57.7875 45.7197 57.9385 44.3455 58.2367C42.9713 58.535 41.7405 58.9843 40.6758 59.5808C40.3738 59.09 39.9925 58.6634 39.5546 58.316C39.1128 57.9687 38.6145 57.6969 38.0671 57.5119C39.5206 55.6582 41.1591 53.9592 42.9562 52.4378C44.7532 50.9201 46.7089 49.5798 48.7929 48.4548C45.9727 49.0928 43.2846 49.912 40.7363 50.905C38.1879 51.8979 35.7792 53.072 33.5215 54.4236C30.0822 56.4812 26.9637 58.9503 24.1888 61.8158C21.4139 64.6813 18.9788 67.9432 16.9061 71.5789C13.6291 77.3326 11.7036 83.2146 10.571 88.2396C9.44219 93.2646 9.10619 97.4327 9.0118 99.7545C9.00803 99.8262 8.9967 100.6 8.9967 100.6C8.9967 103.783 9.85371 106.856 11.3978 109.533C12.942 112.209 15.177 114.49 17.933 116.079L30.1463 123.132L42.3634 130.188ZM63.8151 122.516C58.8241 120.47 53.8255 117.423 49.0194 113.063C44.2134 108.698 39.5999 103.016 35.3752 95.696H35.379L35.3828 95.6922C33.9217 93.174 32.774 90.4558 31.9925 87.5865C31.211 84.7172 30.7919 81.7007 30.7919 78.586C30.7919 78.4199 30.7919 78.25 30.7957 78.0839C30.7995 77.9178 30.8032 77.7516 30.807 77.5817C29.9538 80.3415 29.3158 83.0749 28.9042 85.7743C28.4927 88.4737 28.304 91.1429 28.3455 93.7743C28.4059 97.78 28.9873 101.718 30.0822 105.553C31.177 109.389 32.7853 113.127 34.8958 116.74C38.237 122.452 42.3672 127.062 46.1539 130.554C49.9406 134.046 53.3837 136.421 55.3432 137.663C55.4036 137.701 55.4564 137.735 55.498 137.761C55.5395 137.788 55.5735 137.81 55.6037 137.829L59.7075 140.2L63.8113 142.571V132.544V122.516H63.8151ZM98.3749 123.996C96.0681 124.608 93.5688 125.14 90.926 125.521C88.2833 125.903 85.4933 126.129 82.6051 126.129C79.985 126.129 77.2856 125.94 74.5409 125.51C71.7962 125.08 69.0025 124.404 66.1974 123.426V133V142.575L82.2842 133.287L98.3749 123.996ZM121.016 72.3906C118.834 80.4321 114.666 90.0291 106.718 97.8517C98.7751 105.674 87.0525 111.722 69.7613 112.663C69.9085 112.066 69.9425 111.458 69.867 110.865C69.7915 110.273 69.6065 109.695 69.312 109.155C70.5579 108.411 71.7396 107.351 72.8345 106.022C73.9293 104.693 74.9373 103.096 75.8397 101.268C74.1105 101 72.3286 100.612 70.5164 100.109C68.7042 99.6073 66.858 98.9881 65.0043 98.2595C63.1506 98.9843 61.3045 99.6035 59.4923 100.109C57.6801 100.612 55.8981 101.004 54.169 101.268C55.0713 103.096 56.0794 104.696 57.1742 106.025C58.2691 107.354 59.4545 108.411 60.7004 109.159C60.4286 109.661 60.2511 110.205 60.1719 110.763C60.0888 111.322 60.1039 111.9 60.2209 112.466C57.8274 112.13 55.5093 111.545 53.3007 110.737C51.0921 109.929 48.9854 108.902 47.0147 107.675C48.9817 109.801 51.0317 111.722 53.1686 113.436C55.3054 115.147 57.5253 116.649 59.8283 117.933C63.3281 119.885 67.0279 121.35 70.9015 122.32C74.7712 123.29 78.8147 123.766 82.994 123.743C89.6122 123.705 95.6679 122.433 100.587 120.9C105.507 119.368 109.282 117.574 111.339 116.495C111.404 116.461 112.079 116.083 112.079 116.083C114.835 114.49 117.07 112.213 118.615 109.536C120.159 106.86 121.016 103.787 121.016 100.604V86.4992V72.3906ZM121.016 47.6242L112.332 52.6379L103.649 57.6516C104.374 62.9975 104.234 68.8493 102.856 75.1919C101.478 81.5346 98.8656 88.3718 94.641 95.6922L94.6372 95.6884L94.6335 95.6847C93.044 98.4256 91.0884 100.925 88.8307 103.118C86.573 105.312 84.0133 107.196 81.2233 108.706C84.0435 108.068 86.7316 107.249 89.28 106.256C91.8284 105.263 94.237 104.089 96.4947 102.737C99.9341 100.683 103.053 98.2104 105.827 95.3449C108.602 92.4794 111.037 89.2174 113.11 85.5818C116.387 79.8319 118.313 73.9498 119.441 68.9248C120.57 63.8998 120.906 59.7318 121.004 57.4099C121.008 57.3382 121.016 57.1343 121.02 57.1004V52.3585V47.6242H121.016Z" fill="#3B56A5"/>
<path d="M161.929 52.9738H165.572L165.893 54.8841H166.003C167.271 53.6647 168.789 52.6113 170.847 52.6113C174.124 52.6113 175.521 54.9256 175.521 58.6935V68.0526H171.054V59.2673C171.054 57.0965 170.473 56.4207 169.182 56.4207C168.06 56.4207 167.373 56.9417 166.392 57.8855V68.0564H161.925V52.9738H161.929Z" fill="#3B56A5"/>
<path d="M179.307 52.9738H182.951L183.271 54.8841H183.381C184.649 53.6647 186.167 52.6113 188.225 52.6113C191.502 52.6113 192.899 54.9256 192.899 58.6935V68.0526H188.432V59.2673C188.432 57.0965 187.851 56.4207 186.56 56.4207C185.438 56.4207 184.751 56.9417 183.77 57.8855V68.0564H179.303V52.9738H179.307Z" fill="#3B56A5"/>
<path d="M195.809 60.517C195.809 55.507 199.339 52.6113 203.152 52.6113C206.966 52.6113 210.496 55.507 210.496 60.517C210.496 65.5193 206.966 68.415 203.152 68.415C199.339 68.4113 195.809 65.5193 195.809 60.517ZM205.92 60.517C205.92 57.9082 205.002 56.213 203.156 56.213C201.31 56.213 200.393 57.9082 200.393 60.517C200.393 63.1257 201.31 64.8096 203.156 64.8096C205.002 64.8096 205.92 63.1257 205.92 60.517Z" fill="#3B56A5"/>
<path d="M211.704 52.9741H216.193L218.156 60.0907C218.541 61.5895 218.937 63.145 219.326 64.7231H219.447C219.832 63.145 220.229 61.5895 220.617 60.0907L222.581 52.9741H226.858L221.939 68.0492H216.789L211.704 52.9741Z" fill="#3B56A5"/>
<path d="M227.896 63.8695C227.896 60.6944 230.422 58.9728 236.383 58.3461C236.293 57.0285 235.636 56.1677 234.001 56.1677C232.736 56.1677 231.475 56.7001 230.011 57.5306L228.421 54.5972C230.335 53.4268 232.491 52.6113 234.858 52.6113C238.713 52.6113 240.846 54.8124 240.846 59.4334V68.0526H237.203L236.882 66.5085H236.772C235.504 67.6222 234.08 68.4188 232.385 68.4188C229.641 68.4113 227.896 66.4065 227.896 63.8695ZM236.383 63.6694V61.038C233.208 61.4684 232.17 62.3744 232.17 63.5146C232.17 64.4849 232.838 64.9606 233.899 64.9606C234.915 64.9568 235.591 64.4584 236.383 63.6694Z" fill="#3B56A5"/>
<path d="M243.27 66.3084L245.278 63.5259C246.645 64.5604 247.906 65.1078 249.167 65.1078C250.496 65.1078 251.07 64.6019 251.07 63.8129C251.07 62.8199 249.575 62.3707 248.023 61.7628C246.177 61.0493 244.032 59.8223 244.032 57.3305C244.032 54.5254 246.313 52.6113 249.79 52.6113C252.1 52.6113 253.818 53.5438 255.102 54.5217L253.105 57.2022C252.032 56.4245 250.975 55.9148 249.929 55.9148C248.774 55.9148 248.208 56.3678 248.208 57.1191C248.208 58.0818 249.62 58.4481 251.183 59.0181C253.093 59.7241 255.241 60.8001 255.241 63.5561C255.241 66.282 253.089 68.4188 249.05 68.4188C247.068 68.4113 244.795 67.5505 243.27 66.3084Z" fill="#3B56A5"/>
<path d="M265.99 73.6367L266.783 70.2313C267.062 70.3031 267.474 70.4239 267.798 70.4239C269.271 70.4239 270.045 69.6122 270.437 68.4456L270.664 67.6603L264.85 52.9741H269.339L271.494 59.4602C271.929 60.8269 272.287 62.254 272.684 63.7302H272.805C273.141 62.3031 273.477 60.876 273.85 59.4602L275.678 52.9741H279.955L274.722 68.2115C273.292 71.9869 271.683 73.9425 268.142 73.9425C267.202 73.9425 266.605 73.8217 265.99 73.6367Z" fill="#3B56A5"/>
<path d="M280.974 63.8695C280.974 60.6944 283.5 58.9728 289.461 58.3461C289.371 57.0285 288.714 56.1677 287.079 56.1677C285.814 56.1677 284.553 56.7001 283.088 57.5306L281.499 54.5972C283.413 53.4268 285.569 52.6113 287.936 52.6113C291.791 52.6113 293.924 54.8124 293.924 59.4334V68.0526H290.281L289.96 66.5085H289.85C288.582 67.6222 287.158 68.4188 285.463 68.4188C282.718 68.4113 280.974 66.4065 280.974 63.8695ZM289.465 63.6694V61.038C286.29 61.4684 285.252 62.3744 285.252 63.5146C285.252 64.4849 285.92 64.9606 286.981 64.9606C287.993 64.9568 288.672 64.4584 289.465 63.6694Z" fill="#3B56A5"/>
<path d="M302.154 52.9741H306.643L308.606 60.0907C308.991 61.5895 309.388 63.145 309.777 64.7231H309.897C310.283 63.145 310.679 61.5895 311.068 60.0907L313.031 52.9741H317.309L312.389 68.0492H307.24L302.154 52.9741Z" fill="#3B56A5"/>
<path d="M318.785 61.1248C318.785 60.3206 318.883 59.5052 318.97 59.1389H327.989C327.638 57.0059 326.407 56.0129 324.527 56.0129C323.364 56.0129 322.284 56.3716 321.224 57.021L319.747 54.129C321.378 53.0379 323.402 52.6113 325.29 52.6113C329.265 52.6113 332.316 55.5976 332.316 60.5056C332.316 65.3947 329.023 68.4113 325.259 68.4113C320.978 68.4113 318.785 65.2928 318.785 61.1248ZM328.038 62.0951H322.602C322.602 63.8166 323.364 65.0097 325.161 65.0097C326.626 65.0097 327.74 64.13 328.038 62.0951Z" fill="#3B56A5"/>
<path d="M357.32 68.0489L352.838 60.1282C354.953 59.173 356.365 57.3231 356.365 54.4123C356.365 49.7044 352.921 48.2471 348.723 48.2471H341.592V68.0489H346.069V60.921H348.531L352.31 68.0489H357.32ZM346.069 51.7997H348.361C350.717 51.7997 351.981 52.4528 351.981 54.4123C351.981 56.3603 350.717 57.3684 348.361 57.3684H346.069V51.7997Z" fill="#3B56A5"/>
<path d="M358.981 61.1248C358.981 60.3206 359.079 59.5052 359.166 59.1389H368.185C367.834 57.0059 366.604 56.0129 364.723 56.0129C363.561 56.0129 362.481 56.3716 361.42 57.021L359.944 54.129C361.575 53.0379 363.598 52.6113 365.486 52.6113C369.462 52.6113 372.512 55.5976 372.512 60.5056C372.512 65.3947 369.22 68.4113 365.456 68.4113C361.175 68.4113 358.981 65.2928 358.981 61.1248ZM368.235 62.0951H362.798C362.798 63.8166 363.561 65.0097 365.358 65.0097C366.823 65.0097 367.936 64.13 368.235 62.0951Z" fill="#3B56A5"/>
<path d="M384.593 69.0454L384.755 66.7424C383.77 67.7165 382.328 68.4111 380.973 68.4111C377.227 68.4111 374.807 65.4361 374.807 60.5131C374.807 55.5824 377.884 52.6074 381.059 52.6074C382.698 52.6074 383.887 53.1775 385.084 54.4574H385.193L385.567 52.9699H389.059V73.6362H384.593V69.0454ZM384.593 63.4088V57.2209C383.804 56.5149 382.917 56.2658 382.098 56.2658C380.652 56.2658 379.383 57.6022 379.383 60.4677C379.383 63.4276 380.406 64.7603 382.135 64.7603C383.087 64.7566 383.853 64.3979 384.593 63.4088Z" fill="#3B56A5"/>
<path d="M392.129 61.1248C392.129 60.3206 392.227 59.5052 392.314 59.1389H401.333C400.982 57.0059 399.751 56.0129 397.871 56.0129C396.708 56.0129 395.628 56.3716 394.568 57.021L393.091 54.129C394.722 53.0379 396.746 52.6113 398.634 52.6113C402.609 52.6113 405.66 55.5976 405.66 60.5056C405.66 65.3947 402.368 68.4113 398.603 68.4113C394.322 68.4113 392.129 65.2928 392.129 61.1248ZM401.386 62.0951H395.949C395.949 63.8166 396.712 65.0097 398.509 65.0097C399.97 65.0097 401.084 64.13 401.386 62.0951Z" fill="#3B56A5"/>
<path d="M408.729 52.9736H412.372L412.693 54.9066H412.803C414.041 53.6645 415.389 52.6074 417.371 52.6074C419.489 52.6074 420.769 53.5211 421.531 55.1445C422.857 53.7627 424.272 52.6074 426.266 52.6074C429.524 52.6074 430.981 54.9217 430.981 58.6895V68.0487H426.515V59.2634C426.515 57.0926 425.922 56.4168 424.654 56.4168C423.895 56.4168 423.038 56.8887 422.086 57.8816V68.0525H417.62V59.2672C417.62 57.0963 417.027 56.4205 415.759 56.4205C415.011 56.4205 414.143 56.8925 413.192 57.8854V68.0562H408.725V52.9736H408.729Z" fill="#3B56A5"/>
<path d="M433.435 66.3084L435.444 63.5259C436.81 64.5604 438.071 65.1078 439.332 65.1078C440.661 65.1078 441.235 64.6019 441.235 63.8129C441.235 62.8199 439.74 62.3707 438.188 61.7628C436.342 61.0493 434.198 59.8223 434.198 57.3305C434.198 54.5254 436.478 52.6113 439.955 52.6113C442.266 52.6113 443.984 53.5438 445.267 54.5217L443.27 57.2022C442.198 56.4245 441.141 55.9148 440.095 55.9148C438.94 55.9148 438.373 56.3678 438.373 57.1191C438.373 58.0818 439.785 58.4481 441.348 59.0181C443.255 59.7241 445.407 60.8001 445.407 63.5561C445.407 66.282 443.255 68.4188 439.215 68.4188C437.233 68.4113 434.96 67.5505 433.435 66.3084Z" fill="#3B56A5"/>
<path d="M447.536 63.8695C447.536 60.6944 450.062 58.9728 456.023 58.3461C455.933 57.0285 455.276 56.1677 453.641 56.1677C452.376 56.1677 451.115 56.7001 449.65 57.5306L448.061 54.5972C449.975 53.4268 452.131 52.6113 454.498 52.6113C458.353 52.6113 460.486 54.8124 460.486 59.4334V68.0526H456.843L456.522 66.5085H456.412C455.144 67.6222 453.72 68.4188 452.025 68.4188C449.28 68.4113 447.536 66.4065 447.536 63.8695ZM456.023 63.6694V61.038C452.848 61.4684 451.81 62.3744 451.81 63.5146C451.81 64.4849 452.478 64.9606 453.539 64.9606C454.551 64.9568 455.23 64.4584 456.023 63.6694Z" fill="#3B56A5"/>
<path d="M464.238 63.364V46.7637H468.705V63.5452C468.705 64.5041 469.146 64.8062 469.513 64.8062C469.682 64.8062 469.807 64.8062 470.06 64.7458L470.592 68.0379C470.098 68.2493 469.365 68.4117 468.35 68.4117C465.288 68.4117 464.238 66.4145 464.238 63.364Z" fill="#3B56A5"/>
<path d="M161.937 89.4328H165.58L165.901 91.3431H166.01C167.279 90.1236 168.797 89.0703 170.854 89.0703C174.131 89.0703 175.528 91.3846 175.528 95.1524V104.512H171.062V95.7263C171.062 93.5555 170.48 92.8797 169.189 92.8797C168.068 92.8797 167.381 93.4007 166.399 94.3445V104.515H161.933V89.4328H161.937Z" fill="#3B56A5"/>
<path d="M179.315 83.2222H183.683V95.4166H183.792L188.572 89.4327H193.42L188.142 95.6469L193.82 104.508H188.98L185.589 98.6295L183.679 100.797V104.508H179.311V83.2222H179.315Z" fill="#3B56A5"/>
<path d="M214.996 100.011C214.996 97.2552 212.844 96.1792 210.937 95.4732C209.374 94.9031 207.962 94.5369 207.962 93.5742C207.962 92.8229 208.529 92.3699 209.684 92.3699C210.726 92.3699 211.787 92.8758 212.859 93.6573L214.856 90.9767C213.573 90.0027 211.855 89.0664 209.544 89.0664C206.067 89.0664 203.787 90.9805 203.787 93.7856C203.787 96.2774 205.927 97.5044 207.777 98.2179C209.329 98.8257 210.824 99.275 210.824 100.268C210.824 101.057 210.25 101.563 208.921 101.563C207.66 101.563 206.399 101.012 205.033 99.981L203.024 102.763C204.391 103.877 206.362 104.685 208.185 104.84L206.939 107.358C208.782 107.6 209.257 108.026 209.257 108.638C209.257 109.499 208.517 109.846 206.143 109.978L206.475 111.768C210.262 111.636 212.47 110.696 212.47 108.627C212.47 107.362 211.67 106.712 210.144 106.361L210.892 104.651C213.58 104.047 214.996 102.224 214.996 100.011Z" fill="#3B56A5"/>
<path d="M217.118 100.328C217.118 97.1534 219.643 95.4318 225.605 94.8051C225.514 93.4875 224.857 92.6267 223.222 92.6267C221.958 92.6267 220.697 93.159 219.232 93.9896L217.642 91.0562C219.556 89.8858 221.712 89.0703 224.079 89.0703C227.934 89.0703 230.067 91.2714 230.067 95.8924V104.512H226.424L226.103 102.967H225.993C224.725 104.081 223.302 104.878 221.606 104.878C218.862 104.874 217.118 102.866 217.118 100.328ZM225.605 100.128V97.4969C222.43 97.9273 221.391 98.8334 221.391 99.9736C221.391 100.944 222.06 101.42 223.12 101.42C224.136 101.42 224.812 100.917 225.605 100.128Z" fill="#3B56A5"/>
<path d="M240.782 86.3634C241.28 86.3634 241.835 86.4842 242.345 86.6881L243.149 83.396C242.48 83.143 241.401 82.8599 240.144 82.8599C236.074 82.8599 234.597 85.4724 234.597 88.6551V89.4554L232.593 89.6065V92.9401H234.597V104.508H239.064V92.9401H241.778V89.4366H239.064V88.5267C239.06 86.9637 239.69 86.3634 240.782 86.3634Z" fill="#3B56A5"/>
<path d="M268.123 104.508H272.861L266.643 84.7061H261.286L255.064 104.508H259.64L260.863 99.7924H266.9L268.123 104.508ZM261.769 96.3115L262.245 94.4805C262.796 92.5022 263.324 90.1841 263.804 88.0926H263.925C264.453 90.1577 264.982 92.4984 265.533 94.4805L266.005 96.3115H261.769Z" fill="#3B56A5"/>
<path d="M290.137 96.9759C290.137 92.0868 293.626 89.0703 297.246 89.0703C301.539 89.0703 303.668 92.1925 303.668 96.3039C303.668 97.1081 303.57 97.9122 303.483 98.2784H294.464C294.864 100.464 296.363 101.469 298.375 101.469C299.515 101.469 300.542 101.121 301.633 100.483L303.109 103.175C301.565 104.244 299.549 104.874 297.76 104.874C293.463 104.874 290.137 101.967 290.137 96.9759ZM299.851 95.3261C299.851 93.6687 299.13 92.4757 297.348 92.4757C295.936 92.4757 294.72 93.4233 294.415 95.3261H299.851Z" fill="#3B56A5"/>
<path d="M306.753 89.4328H310.396L310.717 91.3431H310.826C312.095 90.1236 313.612 89.0703 315.67 89.0703C318.947 89.0703 320.344 91.3846 320.344 95.1524V104.512H315.878V95.7263C315.878 93.5555 315.296 92.8797 314.005 92.8797C312.884 92.8797 312.197 93.4007 311.215 94.3445V104.515H306.749V89.4328H306.753Z" fill="#3B56A5"/>
<path d="M324.735 99.0295V92.9399H322.677V89.6062L324.988 89.4326L325.509 85.4307H329.201V89.4326H332.814V92.9361H329.201V98.9729C329.201 100.683 329.975 101.367 331.153 101.367C331.651 101.367 332.191 101.223 332.587 101.08L333.293 104.323C332.493 104.576 331.406 104.87 329.945 104.87C326.215 104.874 324.735 102.522 324.735 99.0295Z" fill="#3B56A5"/>
<path d="M335.766 99.8225V83.2222H340.233V100.007C340.233 100.966 340.674 101.268 341.04 101.268C341.21 101.268 341.335 101.268 341.588 101.208L342.12 104.5C341.626 104.712 340.893 104.874 339.878 104.874C336.812 104.874 335.766 102.873 335.766 99.8225Z" fill="#3B56A5"/>
<path d="M352.386 110.099L353.178 106.694C353.458 106.765 353.869 106.886 354.194 106.886C355.666 106.886 356.44 106.075 356.833 104.908L357.059 104.123L351.245 89.4365H355.734L357.89 95.9226C358.324 97.2893 358.683 98.7164 359.079 100.193H359.2C359.536 98.7655 359.872 97.3384 360.246 95.9226L362.077 89.4365H366.354L361.122 104.674C359.691 108.449 358.083 110.405 354.541 110.405C353.597 110.401 353.001 110.28 352.386 110.099Z" fill="#3B56A5"/>
<path d="M288.484 101.929C288.484 106.664 285.233 108.936 280.314 108.936C277.962 108.936 276.214 108.381 274.919 107.747L276.108 104.757C277.191 105.338 278.539 105.841 280.208 105.841C282.481 105.841 284.097 104.836 284.097 102.084V101.265H284.044C283.115 102.533 281.688 103.353 279.812 103.353C276.266 103.353 273.941 100.468 273.941 96.4777C273.941 92.5135 276.319 89.312 279.966 89.312C281.873 89.312 283.406 90.1841 284.463 91.6678H284.516L284.621 89.6027H288.48V101.929H288.484ZM284.251 96.3493C284.251 94.0765 283.194 92.4871 281.314 92.4871C279.385 92.4871 278.381 94.2049 278.381 96.4022C278.381 98.5428 279.332 100.264 281.291 100.264C283.198 100.261 284.251 98.6221 284.251 96.3493Z" fill="#3B56A5"/>
<path d="M153.155 48.2472H157.633V68.049H153.155V48.2472ZM153.148 43.0674H157.64V46.771H153.148V43.0674Z" fill="#3B56A5"/>
<path d="M153.163 84.7058H157.64V104.508H153.163V84.7058ZM153.155 79.5298H157.648V83.2334H153.155V79.5298Z" fill="#3B56A5"/>
<path d="M258.062 52.9739H262.528V68.0489H258.062V52.9739ZM258.05 46.5859H262.543V50.2896H258.05V46.5859Z" fill="#3B56A5"/>
<path d="M195.964 89.4329H200.431V104.508H195.964V89.4329ZM195.957 83.0449H200.449V86.7486H195.957V83.0449Z" fill="#3B56A5"/>
<path d="M344.457 89.4329H348.924V104.508H344.457V89.4329ZM344.446 83.0449H348.939V86.7486H344.446V83.0449Z" fill="#3B56A5"/>
<path d="M368.672 89.4329H373.139V104.508H368.672V89.4329ZM368.661 83.0449H373.154V86.7486H368.661V83.0449Z" fill="#3B56A5"/>
</svg>
