<svg width="380" height="141" viewBox="0 0 380 141" fill="none" xmlns="http://www.w3.org/2000/svg">
<path d="M156.354 59.295C156.354 57.4035 156.762 55.5951 157.574 53.8622C158.386 52.1293 159.541 50.623 161.036 49.3356C162.531 48.0482 164.343 47.0137 166.469 46.2247C168.594 45.4394 170.995 45.043 173.672 45.043C176.137 45.043 178.38 45.4356 180.403 46.2247C182.423 47.0137 184.168 48.1161 185.64 49.5319C187.109 50.9477 188.237 52.6164 189.026 54.5305C189.815 56.4484 190.208 58.5324 190.208 60.79H181.155C181.155 58.5852 180.498 56.8523 179.188 55.5951C177.874 54.3342 176.039 53.7074 173.676 53.7074C171.316 53.7074 169.478 54.2851 168.164 55.4403C166.85 56.5956 166.197 57.8566 166.197 59.2195C166.197 60.6881 166.827 61.8169 168.084 62.606C169.345 63.3951 170.92 64.101 172.807 64.7315C174.699 65.362 176.756 66.0189 178.988 66.6985C181.215 67.3818 183.277 68.2993 185.168 69.4545C187.056 70.6098 188.63 72.1199 189.891 73.9812C191.152 75.8462 191.779 78.2738 191.779 81.2639C191.779 83.0496 191.345 84.7788 190.48 86.4588C189.612 88.1388 188.392 89.649 186.818 90.9855C185.243 92.3257 183.341 93.4017 181.109 94.2134C178.878 95.0289 176.398 95.4329 173.668 95.4329C170.886 95.4329 168.405 95.0402 166.227 94.2512C164.049 93.4621 162.199 92.3484 160.677 90.9062C159.156 89.464 157.985 87.7575 157.174 85.7906C156.358 83.8236 155.954 81.6565 155.954 79.2969H165.4C165.4 81.5017 166.136 83.2988 167.605 84.6882C169.074 86.0813 171.093 86.7759 173.668 86.7759C176.451 86.7759 178.523 86.187 179.886 85.0053C181.249 83.8236 181.932 82.4456 181.932 80.8713C181.932 79.3498 181.302 78.1681 180.045 77.33C178.784 76.4918 177.21 75.7443 175.322 75.0874C173.434 74.4305 171.373 73.7887 169.142 73.1582C166.91 72.5277 164.849 71.6631 162.961 70.5607C161.074 69.4583 159.499 68.0274 158.238 66.2719C156.981 64.5012 156.354 62.1794 156.354 59.295Z" fill="#141414"/>
<path d="M215.397 86.3753C218.546 86.3753 221.038 85.4579 222.876 83.6193C224.711 81.7845 225.632 79.289 225.632 76.1403V45.439H235.078V76.1403C235.078 78.9227 234.591 81.4824 233.621 83.8156C232.651 86.1526 231.288 88.1837 229.528 89.9166C227.769 91.6495 225.681 93.0011 223.269 93.9714C220.853 94.9416 218.229 95.4287 215.393 95.4287C212.558 95.4287 209.934 94.9454 207.522 93.9714C205.106 93.0011 203.022 91.6495 201.262 89.9166C199.503 88.1837 198.14 86.1488 197.17 83.8156C196.199 81.4824 195.712 78.9227 195.712 76.1403V45.439H205.158V76.1403C205.158 79.289 206.076 81.7845 207.914 83.6193C209.757 85.4579 212.249 86.3753 215.397 86.3753Z" fill="#141414"/>
<path d="M260.271 45.4351C262.631 45.4351 264.836 45.8692 266.882 46.7338C268.928 47.5983 270.725 48.78 272.277 50.2751C273.825 51.7701 275.033 53.5295 275.898 55.5493C276.762 57.5691 277.196 59.7097 277.196 61.9636C277.196 64.2213 276.762 66.3619 275.898 68.3818C275.029 70.4016 273.825 72.1609 272.277 73.656C270.729 75.151 268.932 76.3327 266.882 77.1973C264.836 78.0618 262.631 78.496 260.271 78.496H251.218V95.0283H241.772V45.4351H260.271ZM260.271 69.4464C261.268 69.4464 262.212 69.2388 263.107 68.8159C263.998 68.3969 264.787 67.8457 265.47 67.1623C266.153 66.4828 266.701 65.6937 267.124 64.8027C267.543 63.9117 267.754 62.9641 267.754 61.9674C267.754 60.9707 267.543 60.0269 267.124 59.1321C266.701 58.2411 266.153 57.4521 265.47 56.7725C264.787 56.0892 264.001 55.538 263.107 55.1189C262.212 54.6998 261.268 54.4884 260.271 54.4884H251.218V69.4464H260.271Z" fill="#141414"/>
<path d="M276.018 90.3093C276.018 88.9464 276.528 87.7496 277.551 86.7265C278.574 85.7034 279.767 85.1899 281.134 85.1899C282.497 85.1899 283.694 85.7034 284.717 86.7265C285.74 87.7496 286.253 88.9427 286.253 90.3093C286.253 91.676 285.74 92.869 284.717 93.8922C283.694 94.9153 282.501 95.4287 281.134 95.4287C279.767 95.4287 278.574 94.9153 277.551 93.8922C276.528 92.869 276.018 91.676 276.018 90.3093Z" fill="#141414"/>
<path d="M303.964 95.036L286.25 45.439H296.092L308.69 81.6523L321.285 45.439H331.127L313.413 95.036H303.964Z" fill="#141414"/>
<path d="M338.607 70.2357C338.607 72.5953 338.999 74.7623 339.788 76.7293C340.577 78.6963 341.623 80.4027 342.937 81.8487C344.247 83.2947 345.784 84.4084 347.543 85.1937C349.298 85.979 351.175 86.3754 353.172 86.3754C354.852 86.3754 356.373 86.1262 357.736 85.6279C359.099 85.1295 360.323 84.4764 361.398 83.6609C362.474 82.8492 363.365 81.928 364.075 80.9049C364.785 79.8817 365.348 78.8171 365.767 77.7147H375.609C375.031 80.0781 374.088 82.332 372.774 84.4839C371.46 86.6359 369.848 88.5122 367.93 90.113C366.012 91.7138 363.807 93.0012 361.315 93.9714C358.82 94.9417 356.105 95.4287 353.168 95.4287C349.914 95.4287 346.833 94.7869 343.919 93.4995C341.004 92.2121 338.459 90.4301 336.281 88.146C334.103 85.8619 332.37 83.2003 331.082 80.1573C329.795 77.1144 329.153 73.8072 329.153 70.2394C329.153 66.7246 329.795 63.4287 331.082 60.3593C332.37 57.2899 334.099 54.6132 336.281 52.3291C338.456 50.045 341.004 48.263 343.919 46.9756C346.833 45.6882 349.914 45.0464 353.168 45.0464C356.003 45.0464 358.639 45.5334 361.081 46.5037C363.524 47.474 365.687 48.7614 367.575 50.3621C369.463 51.9629 371.063 53.8392 372.377 55.9912C373.687 58.1432 374.631 60.4008 375.213 62.7604H365.37C365.057 61.658 364.555 60.5971 363.875 59.5702C363.192 58.5471 362.339 57.6297 361.315 56.8142C360.292 56.0025 359.099 55.3456 357.733 54.8473C356.366 54.3489 354.844 54.0997 353.168 54.0997C351.175 54.0997 349.298 54.4924 347.539 55.2814C345.78 56.0705 344.243 57.1842 342.933 58.6264C341.619 60.0724 340.57 61.7751 339.784 63.7458C338.999 65.709 338.607 67.8723 338.607 70.2357Z" fill="#141414"/>
<path d="M47.333 59.7407V49.2451H5.34329V91.2348C5.34329 114.423 24.1409 133.224 47.333 133.224V91.231V59.7407Z" fill="#FF9C20"/>
<path d="M89.3227 7.25537H47.333V49.2451H89.3227V91.2347C112.511 91.2347 131.312 72.4372 131.312 49.2451C131.309 26.0529 112.511 7.25537 89.3227 7.25537Z" fill="#973DFC"/>
<path d="M47.333 49.2412V59.7367V91.2271V133.217C70.5213 133.217 89.3227 114.419 89.3227 91.2271V49.2412H47.333Z" fill="#F72AEE"/>
</svg>
