<svg width="81" height="81" viewBox="0 0 81 81" fill="none" xmlns="http://www.w3.org/2000/svg">
<path d="M13.6777 51.4104C4.70018 51.4104 -2.58984 58.7004 -2.58984 67.6779C-2.58984 76.6554 4.70018 83.9454 13.6777 83.9454C22.6552 83.9454 29.9452 76.6554 29.9452 67.6779C29.9452 58.7004 22.6552 51.4104 13.6777 51.4104Z" fill="#FF8100"/>
<path d="M13.5 -3.05176e-05C-23.76 -3.05176e-05 -54 30.24 -54 67.5C-54 104.76 -23.76 135 13.5 135C50.76 135 81 104.76 81 67.5C81 30.24 50.76 -3.05176e-05 13.5 -3.05176e-05ZM13.5 106.92C-8.3025 106.92 -25.92 89.235 -25.92 67.5C-25.92 45.765 -8.235 28.08 13.5 28.08C35.235 28.08 52.92 45.765 52.92 67.5C52.92 89.235 35.235 106.92 13.5 106.92Z" fill="#4141AF"/>
</svg>
