<svg width="291" height="110" viewBox="0 0 291 110" fill="none" xmlns="http://www.w3.org/2000/svg">
<path d="M51.2895 136.12C51.3194 136.22 52.3268 135.21 54.2466 133.055C56.2165 130.886 58.4524 128.145 61.0044 124.82C63.5414 121.445 66.1337 117.889 68.7365 114.003C71.3041 110.183 73.3509 106.626 74.7915 103.415C76.2322 100.203 76.791 97.6913 76.388 95.7938C75.9999 93.9463 74.1389 93.1931 70.7698 93.5993C66.5995 94.2446 63.3096 95.2815 60.75 96.7548C58.2405 98.2132 56.0261 99.747 54.0271 101.271C52.093 102.83 50.2292 104.259 48.5656 105.629C46.852 107.013 44.8237 107.891 42.4105 108.394C37.5535 109.844 33.75 109.344 30.9853 106.843C28.2205 104.341 26.0931 100.504 24.5381 95.2969C22.9831 90.0894 22.6546 84.7883 23.6025 79.3787C24.5004 73.9841 26.2936 69.0311 28.9173 64.4846C31.5558 59.9881 34.9396 55.9782 39.0835 52.5048C43.2273 49.0314 47.7854 46.5796 52.7926 45.0844C54.7955 44.4863 56.5428 44.1281 58.0996 44.045C59.6564 43.962 60.7312 45.0044 61.3891 47.2076C61.8526 48.7599 61.6353 50.4064 60.7019 52.2121C59.7686 54.0179 58.5109 55.1024 56.8084 55.6108C56.7083 55.6407 56.3779 55.6302 55.8824 55.6146C55.3869 55.5989 54.8615 55.4831 54.3062 55.2672C53.7509 55.0513 53.2255 54.9355 52.73 54.9198C52.5877 54.9153 52.4632 54.91 52.3544 54.9058C51.9879 54.8917 51.6175 54.9231 51.2513 54.9425C47.6375 55.1333 44.564 56.6452 41.9876 59.491C39.2809 62.4807 37.1191 66.0167 35.532 70.1992C33.93 74.3315 32.9685 78.5999 32.5975 83.0191C32.2264 87.4384 32.522 91.1677 33.449 94.2722C33.8078 95.474 34.3572 96.4007 35.0673 96.9522C35.7773 97.5037 36.5928 97.8601 37.5337 97.9063C38.4896 98.0027 39.4507 97.9338 40.5172 97.6699C41.5837 97.406 42.6501 97.1421 43.8018 96.7982C46.005 96.1403 48.1536 95.117 50.2125 93.7932C52.2714 92.4694 54.2855 90.9954 56.1844 89.5012C58.0833 88.007 60.0473 86.548 62.1563 85.2093C64.2652 83.8705 66.4639 82.8322 68.9175 82.0996C70.0191 81.7707 71.3106 81.7122 72.8419 81.9094C74.3733 82.1066 75.8442 82.649 77.2897 83.4718C78.7352 84.2945 80.0903 85.3624 81.2899 86.6403C82.354 87.7738 83.2053 89.0567 83.8645 90.5589C84.0331 90.943 84.254 91.3018 84.4742 91.6589C85.3097 93.0135 85.6001 94.9546 85.3454 97.4821C85.0564 100.35 84.3116 103.517 83.0107 107.014C81.7749 110.546 80.0884 114.213 78.0013 118C75.8791 121.851 73.7172 125.387 71.4156 128.638C69.129 131.938 66.7929 134.708 64.3373 137.078C61.8816 139.447 59.6874 140.866 57.6397 141.314C55.4365 141.971 53.9402 141.709 53.1359 140.477C52.4318 139.215 51.7829 137.772 51.2895 136.12Z" fill="#FF8100" stroke="#FF8100" stroke-width="0.681553" stroke-miterlimit="10"/>
<path d="M85.6965 55.1794C85.1037 53.5437 83.0234 53.0477 81.9124 54.3866C81.1405 55.2716 80.4036 56.0915 79.6518 56.8614C78.9 57.6312 78.1535 58.2359 77.312 58.7053C76.5863 59.1102 75.7788 59.3772 74.9218 59.4967C74.6476 59.535 74.3746 59.6024 74.0978 59.6076C73.5757 59.6176 73.0395 59.3514 72.4817 58.7842C71.7769 58.0676 71.1572 57.2709 70.5428 56.3091C69.9784 55.3323 69.4641 54.3406 68.9999 53.334C68.9141 53.1222 68.8358 52.92 68.765 52.7272C68.3575 51.6176 68.7536 50.4367 69.5698 49.5816L79.9734 38.6827C80.9419 37.668 81.3082 36.2201 80.9386 34.8669L69.8415 -5.76317C69.6081 -7.27508 70.345 -8.09502 71.972 -8.30816C73.4492 -8.45487 74.9791 -8.57316 76.5724 -8.62656C76.9278 -8.63847 77.2833 -8.69016 77.6384 -8.7079C77.8246 -8.71721 78.0432 -8.72083 78.2843 -8.72053C79.014 -8.71959 79.6154 -8.1672 79.775 -7.45514C80.3848 -4.73555 81.0049 -1.84275 81.6551 1.28949C82.4013 4.88429 83.2327 8.39911 84.0289 11.979C84.8252 15.5588 85.7418 18.9936 86.6785 22.3134C87.121 23.8813 87.5881 25.3689 88.073 26.7724C88.8774 29.1008 91.6447 29.9648 93.728 28.6502L112.563 16.7656C112.984 16.5309 113.424 16.7266 113.934 17.3379C114.394 17.9642 114.963 18.7758 115.548 19.6375C115.787 20.04 116.053 20.537 116.347 21.1244C117.149 22.7271 116.676 24.6596 115.296 25.8028L94.9653 42.6464C93.7295 43.6702 93.2375 45.3295 93.7533 46.8491C94.1498 48.0173 94.667 49.5217 95.3006 51.3705C96.5722 55.0811 98.1032 59.4778 99.8936 64.5605C101.634 69.6582 103.529 75.0914 105.494 80.9402C107.458 86.7889 109.353 92.2222 111.079 97.2698C112.804 102.317 114.335 106.714 115.572 110.49C116.808 114.265 117.576 116.654 117.875 117.655C118.611 121.035 118.168 123.021 116.466 123.53C115.15 123.923 113.592 123.834 111.8 123.286C110.735 122.961 109.945 122.091 109.565 121.043L85.6965 55.1794Z" fill="#FF8100" stroke="#FF8100" stroke-width="0.681553" stroke-miterlimit="10"/>
<path d="M185.714 94.3505C185.555 94.1514 185.473 93.9036 185.356 93.6775C184.001 91.0507 182.531 87.857 181.035 84.0703C179.423 80.134 177.811 76.1978 176.12 72.1763C174.428 68.1548 172.761 64.3987 171.019 60.9377C170.704 60.2908 170.385 59.6695 170.063 59.0743C168.516 56.2202 164.837 57.2248 164.249 60.4174C162.463 70.1218 160.648 78.1194 158.771 84.3922C156.423 92.2375 154.023 98.0807 151.621 101.907C149.218 105.733 146.853 107.857 144.62 108.415C142.387 108.972 140.235 108.524 138.265 107.04C136.244 105.571 134.525 103.467 133.057 100.742C131.574 97.9669 130.366 95.3826 129.353 92.9036C128.621 90.4501 128.155 86.8806 127.926 82.0952C127.696 77.3098 127.763 72.0543 128.096 66.2285C128.429 60.4027 129.032 54.387 130.021 48.2017C131.01 42.0163 132.334 36.2218 133.972 30.9333C135.611 25.6447 137.674 21.0474 140.012 17.1863C142.276 13.4459 144.961 11.1152 148.04 10.1032C148.239 10.0379 148.435 9.96283 148.625 9.87514C153.032 7.83679 156.742 7.83704 159.817 9.90883C162.844 11.9959 164.701 16.4721 165.266 23.2712C165.29 23.5589 165.342 23.8459 165.425 24.1223C167.566 31.2509 169.694 37.2814 171.808 42.2137C173.964 47.2419 176.096 52.0047 178.267 56.5373C180.439 61.0699 182.57 65.8328 184.726 70.8609C186.882 75.889 189.051 82.0584 191.234 89.369C191.623 90.6709 191.816 91.8674 191.85 92.8936C191.834 93.9347 190.616 94.789 188.213 95.5067C187.921 95.5938 187.543 95.5178 187.032 95.2296C186.811 95.1049 186.585 94.9865 186.362 94.8648C186.072 94.7059 185.856 94.5296 185.714 94.3505ZM154.775 23.7249C154.55 22.9492 154.117 22.1977 153.368 21.896C151.988 21.3402 150.608 21.8706 149.318 23.515C147.649 25.5951 146.148 28.6063 144.782 32.6139C143.465 36.6065 142.258 41.33 141.195 46.7194C140.132 52.1088 139.284 57.4885 138.602 62.8733C137.919 68.2582 137.462 73.303 137.181 78.0227C136.911 82.5398 136.895 86.232 137.146 89.1431C137.168 89.4009 137.218 89.6551 137.294 89.9024C138.456 93.6614 139.678 95.5641 140.987 95.7015C142.338 95.8434 143.646 94.7439 144.926 92.4531C146.155 90.1772 147.445 87.0105 148.712 83.0328C149.978 79.0552 151.17 74.8272 152.201 70.4288C153.233 66.0304 154.195 61.7621 155.086 57.6238C155.977 53.4855 156.627 50.1828 157.071 47.6507C157.384 45.0483 157.493 42.6709 157.445 40.5035C157.398 38.3361 157.281 36.2988 157.143 34.3766C157.005 32.4544 156.652 30.5419 156.134 28.6241C155.692 26.9972 155.25 25.3702 154.775 23.7249Z" fill="#FF8100" stroke="#FF8100" stroke-width="0.681553" stroke-miterlimit="10"/>
<path d="M180.999 13.2835C180.91 13.0974 180.836 12.9048 180.777 12.7074L180.462 11.652C180.133 10.5504 180.294 9.62966 181.026 8.97489C181.758 8.32013 182.634 7.78569 183.736 7.45675C184.637 7.18761 185.468 7.04853 186.314 6.95951C187.031 6.89281 187.788 7.25656 188.501 8.03604C188.663 8.21256 188.793 8.41417 188.905 8.62573C189.711 10.1532 190.649 12.2594 191.8 14.92C193.033 17.7697 194.34 20.8697 195.852 24.2903C197.365 27.7109 198.922 31.2817 200.604 35.0879C202.286 38.8941 203.878 42.3999 205.425 45.7554C206.972 49.111 208.4 52.066 209.823 54.6406C210.56 56.0295 211.921 55.3486 211.463 53.8447C209.066 45.9723 207.356 38.8408 206.308 32.4574C204.977 24.347 204.981 17.4196 206.32 11.6752C207.658 5.93073 210.532 1.30945 214.856 -2.10867C219.126 -5.48346 225.116 -7.72406 232.716 -8.84988C232.911 -8.87872 233.104 -8.92265 233.295 -8.97301C236.543 -9.83276 238.751 -8.47853 239.797 -4.97482C240.23 -3.52271 239.563 -2.28724 237.86 -1.2333C236.107 -0.164396 234.158 0.799138 231.85 1.6521C229.591 2.4901 227.348 3.37818 225.219 4.28643C223.282 5.06208 221.933 6.01841 221.14 7.0445C220.976 7.2574 220.81 7.46992 220.625 7.6656C217.461 11.0169 215.83 15.1966 215.624 20.1862C215.412 25.3214 215.89 31.1232 217.123 37.6267C218.356 44.1303 219.919 51.1898 221.896 58.7254C223.799 66.18 225.37 73.9463 226.464 82.0677C226.492 82.2765 226.54 82.4821 226.584 82.6881C226.793 83.6664 226.569 84.5458 225.901 85.2889C225.165 86.1089 224.203 86.7233 222.901 87.112C221.649 87.4858 220.323 87.6093 218.991 87.3523C217.93 87.1854 216.94 86.7839 216.082 86.1586C215.672 85.8598 215.378 85.4358 215.16 84.978L180.999 13.2835Z" fill="#FF8100" stroke="#FF8100" stroke-width="0.681553" stroke-miterlimit="10"/>
<path d="M262.405 2.41322C261.811 0.777382 259.73 0.281934 258.618 1.62129C257.846 2.50625 257.11 3.32618 256.358 4.09604C255.606 4.8659 254.86 5.47059 254.018 5.94002C253.292 6.34484 252.485 6.61184 251.628 6.7314C251.354 6.76966 251.081 6.83706 250.804 6.84233C250.282 6.85226 249.746 6.58607 249.188 6.01892C248.483 5.30225 247.863 4.50562 247.249 3.5438C246.634 2.58199 246.17 1.57531 245.706 0.56864C245.62 0.355791 245.541 0.152508 245.47 -0.0412034C245.063 -1.14914 245.458 -2.32828 246.272 -3.18309L256.634 -14.0681C257.6 -15.0827 257.965 -16.5287 257.596 -17.88L246.497 -58.5135C246.264 -60.0255 247.001 -60.8454 248.628 -61.0585C250.105 -61.2052 251.635 -61.3235 253.228 -61.3769C253.584 -61.3888 253.939 -61.4405 254.294 -61.4583C254.481 -61.4676 254.699 -61.4712 254.94 -61.4709C255.67 -61.47 256.271 -60.9176 256.431 -60.2055C257.041 -57.4859 257.661 -54.5931 258.311 -51.4609C259.057 -47.8661 259.839 -44.3363 260.685 -40.7714C261.531 -37.2065 262.398 -33.7567 263.335 -30.437C263.777 -28.869 264.244 -27.3815 264.729 -25.978C265.533 -23.6496 268.301 -22.7856 270.384 -24.1001L289.219 -35.9848C289.64 -36.2195 290.08 -36.0237 290.59 -35.4124C291.1 -34.8011 291.619 -33.9746 292.204 -33.1129C292.474 -32.7023 292.764 -32.187 293.073 -31.5718C293.86 -30.0035 293.364 -28.1172 292.012 -26.9979L271.707 -10.1839C270.471 -9.1602 269.979 -7.50048 270.494 -5.98043C270.893 -4.80524 271.415 -3.28645 272.057 -1.40977C273.328 2.30083 274.859 6.6975 276.65 11.7802C278.39 16.8779 280.285 22.3111 282.25 28.1599C284.214 34.0087 286.109 39.4419 287.835 44.4895C289.56 49.5371 291.091 53.9338 292.328 57.7094C293.564 61.485 294.332 63.8735 294.631 64.875C295.418 68.2396 294.924 70.2411 293.222 70.7495C291.906 71.1426 290.348 71.0535 288.555 70.5056C287.49 70.1804 286.7 69.3111 286.321 68.2651L262.405 2.41322Z" fill="#FF8100" stroke="#FF8100" stroke-width="0.681553" stroke-miterlimit="10"/>
</svg>
